<?xml version="1.0" encoding="us-ascii" standalone="no"?><svg xmlns="http://www.w3.org/2000/svg" xmlns:xlink="http://www.w3.org/1999/xlink" contentStyleType="text/css" height="694px" preserveAspectRatio="none" style="width:669px;height:694px;background:#FFFFFF;" version="1.1" viewBox="0 0 669 694" width="669px" zoomAndPan="magnify"><defs/><g><!--cluster Presentation layer--><g id="cluster_Presentation layer"><path d="M8.5,6 L140.5,6 A3.75,3.75 0 0 1 143,8.5 L150,28.4883 L219.5,28.4883 A2.5,2.5 0 0 1 222,30.9883 L222,90.99 A2.5,2.5 0 0 1 219.5,93.49 L8.5,93.49 A2.5,2.5 0 0 1 6,90.99 L6,8.5 A2.5,2.5 0 0 1 8.5,6 " fill="none" style="stroke:#000000;stroke-width:1.5;"/><line style="stroke:#000000;stroke-width:1.5;" x1="6" x2="150" y1="28.4883" y2="28.4883"/><text fill="#000000" font-family="sans-serif" font-size="14" font-weight="bold" lengthAdjust="spacing" textLength="131" x="10" y="21.5352">Presentation layer</text></g><!--cluster Logic layer--><g id="cluster_Logic layer"><path d="M141.5,117.49 L220.5,117.49 A3.75,3.75 0 0 1 223,119.99 L230,139.9783 L503.5,139.9783 A2.5,2.5 0 0 1 506,142.4783 L506,573.94 A2.5,2.5 0 0 1 503.5,576.44 L141.5,576.44 A2.5,2.5 0 0 1 139,573.94 L139,119.99 A2.5,2.5 0 0 1 141.5,117.49 " fill="none" style="stroke:#000000;stroke-width:1.5;"/><line style="stroke:#000000;stroke-width:1.5;" x1="139" x2="230" y1="139.9783" y2="139.9783"/><text fill="#000000" font-family="sans-serif" font-size="14" font-weight="bold" lengthAdjust="spacing" textLength="78" x="143" y="133.0252">Logic layer</text></g><!--cluster Application Layer--><g id="cluster_Application Layer"><path d="M165.5,160.49 L291.5,160.49 A3.75,3.75 0 0 1 294,162.99 L301,182.9783 L479.5,182.9783 A2.5,2.5 0 0 1 482,185.4783 L482,438.45 A2.5,2.5 0 0 1 479.5,440.95 L165.5,440.95 A2.5,2.5 0 0 1 163,438.45 L163,162.99 A2.5,2.5 0 0 1 165.5,160.49 " fill="none" style="stroke:#000000;stroke-width:1.5;"/><line style="stroke:#000000;stroke-width:1.5;" x1="163" x2="301" y1="182.9783" y2="182.9783"/><text fill="#000000" font-family="sans-serif" font-size="14" font-weight="bold" lengthAdjust="spacing" textLength="125" x="167" y="176.0252">Application Layer</text></g><!--cluster Data Access Layer--><g id="cluster_Data Access Layer"><path d="M165.5,464.95 L295.5,464.95 A3.75,3.75 0 0 1 298,467.45 L305,487.4383 L388.5,487.4383 A2.5,2.5 0 0 1 391,489.9383 L391,549.94 A2.5,2.5 0 0 1 388.5,552.44 L165.5,552.44 A2.5,2.5 0 0 1 163,549.94 L163,467.45 A2.5,2.5 0 0 1 165.5,464.95 " fill="none" style="stroke:#000000;stroke-width:1.5;"/><line style="stroke:#000000;stroke-width:1.5;" x1="163" x2="305" y1="487.4383" y2="487.4383"/><text fill="#000000" font-family="sans-serif" font-size="14" font-weight="bold" lengthAdjust="spacing" textLength="129" x="167" y="480.4852">Data Access Layer</text></g><!--cluster Data Layer--><g id="cluster_Data Layer"><path d="M307.5,600.44 L384.5,600.44 A3.75,3.75 0 0 1 387,602.94 L394,622.9283 L418.5,622.9283 A2.5,2.5 0 0 1 421,625.4283 L421,685.43 A2.5,2.5 0 0 1 418.5,687.93 L307.5,687.93 A2.5,2.5 0 0 1 305,685.43 L305,602.94 A2.5,2.5 0 0 1 307.5,600.44 " fill="none" style="stroke:#000000;stroke-width:1.5;"/><line style="stroke:#000000;stroke-width:1.5;" x1="305" x2="394" y1="622.9283" y2="622.9283"/><text fill="#000000" font-family="sans-serif" font-size="14" font-weight="bold" lengthAdjust="spacing" textLength="76" x="309" y="615.9752">Data Layer</text></g><!--entity SPA--><g id="elem_SPA"><rect fill="#F1F1F1" height="36.4883" rx="2.5" ry="2.5" style="stroke:#181818;stroke-width:0.5;" width="185" x="21.5" y="41"/><text fill="#000000" font-family="sans-serif" font-size="14" lengthAdjust="spacing" textLength="165" x="31.5" y="64.5352">Single-Page Application</text></g><!--entity Routes--><g id="elem_Routes"><rect fill="#F1F1F1" height="36.4883" rx="2.5" ry="2.5" style="stroke:#181818;stroke-width:0.5;" width="67" x="188.5" y="195.49"/><text fill="#000000" font-family="sans-serif" font-size="14" lengthAdjust="spacing" textLength="47" x="198.5" y="219.0252">Routes</text></g><!--entity Services--><g id="elem_Services"><rect fill="#F1F1F1" height="36.4883" rx="2.5" ry="2.5" style="stroke:#181818;stroke-width:0.5;" width="75" x="193.5" y="291.98"/><text fill="#000000" font-family="sans-serif" font-size="14" lengthAdjust="spacing" textLength="55" x="203.5" y="315.5152">Services</text></g><!--entity Repositories--><g id="elem_Repositories"><rect fill="#F1F1F1" height="36.4883" rx="2.5" ry="2.5" style="stroke:#181818;stroke-width:0.5;" width="105" x="178.5" y="388.47"/><text fill="#000000" font-family="sans-serif" font-size="14" lengthAdjust="spacing" textLength="85" x="188.5" y="412.0052">Repositories</text></g><!--entity NotificationService--><g id="elem_NotificationService"><rect fill="#F1F1F1" height="36.4883" rx="2.5" ry="2.5" style="stroke:#181818;stroke-width:0.5;" width="147" x="318.5" y="388.47"/><text fill="#000000" font-family="sans-serif" font-size="14" lengthAdjust="spacing" textLength="127" x="328.5" y="412.0052">NotificationService</text></g><!--entity ORM--><g id="elem_ORM"><rect fill="#F1F1F1" height="36.4883" rx="2.5" ry="2.5" style="stroke:#181818;stroke-width:0.5;" width="196" x="179" y="499.95"/><text fill="#000000" font-family="sans-serif" font-size="14" lengthAdjust="spacing" textLength="176" x="189" y="523.4852">Object-Relational Mapper</text></g><!--entity Database--><g id="elem_Database"><rect fill="#F1F1F1" height="36.4883" rx="2.5" ry="2.5" style="stroke:#181818;stroke-width:0.5;" width="83" x="321.5" y="635.44"/><text fill="#000000" font-family="sans-serif" font-size="14" lengthAdjust="spacing" textLength="63" x="331.5" y="658.9752">Database</text></g><!--entity MailAPI--><g id="elem_MailAPI"><ellipse cx="596" cy="518.2" fill="#F1F1F1" rx="8" ry="8" style="stroke:#181818;stroke-width:0.5;"/><text fill="#000000" font-family="sans-serif" font-size="14" lengthAdjust="spacing" textLength="133" x="529.5" y="548.7352">E-mail provider API</text></g><!--entity API--><g id="elem_API"><ellipse cx="114" cy="213.73" fill="#F1F1F1" rx="8" ry="8" style="stroke:#181818;stroke-width:0.5;"/><text fill="#000000" font-family="sans-serif" font-size="14" lengthAdjust="spacing" textLength="104" x="62" y="244.2652">Application API</text></g><!--entity Query--><g id="elem_Query"><ellipse cx="277" cy="653.69" fill="#F1F1F1" rx="8" ry="8" style="stroke:#181818;stroke-width:0.5;"/><text fill="#000000" font-family="sans-serif" font-size="14" lengthAdjust="spacing" textLength="105" x="224.5" y="684.2252">Query interface</text></g><!--link Routes to Services--><g id="link_Routes_Services"><path d="M223.65,232.06 C225.26,249.01 227.1411,268.697 228.7611,285.707 " fill="none" id="Routes-to-Services" style="stroke:#181818;stroke-width:1.0;"/><polygon fill="#181818" points="229.33,291.68,232.4587,282.3413,228.856,286.7025,224.4947,283.0998,229.33,291.68" style="stroke:#181818;stroke-width:1.0;"/></g><!--link Services to Repositories--><g id="link_Services_Repositories"><path d="M231,328.55 C231,345.49 231,365.15 231,382.17 " fill="none" id="Services-to-Repositories" style="stroke:#181818;stroke-width:1.0;"/><polygon fill="#181818" points="231,388.17,235,379.17,231,383.17,227,379.17,231,388.17" style="stroke:#181818;stroke-width:1.0;"/></g><!--link Services to NotificationService--><g id="link_Services_NotificationService"><path d="M260.91,328.77 C289.73,345.69 327.9455,368.1127 356.8055,385.0527 " fill="none" id="Services-to-NotificationService" style="stroke:#181818;stroke-width:1.0;"/><polygon fill="#181818" points="361.98,388.09,356.2431,380.0845,357.6679,385.5589,352.1935,386.9837,361.98,388.09" style="stroke:#181818;stroke-width:1.0;"/></g><!--link Repositories to ORM--><g id="link_Repositories_ORM"><path d="M238.39,425.3 C246.97,445.73 258.7248,473.7089 267.3048,494.1189 " fill="none" id="Repositories-to-ORM" style="stroke:#181818;stroke-width:1.0;"/><polygon fill="#181818" points="269.63,499.65,269.8296,489.8032,267.6923,495.0407,262.4548,492.9034,269.63,499.65" style="stroke:#181818;stroke-width:1.0;"/></g><!--link NotificationService to MailAPI--><g id="link_NotificationService_MailAPI"><path d="M424.78,425.3 C472.76,451.05 554.1434,494.7324 581.9034,509.6324 " fill="none" id="NotificationService-to-MailAPI" style="stroke:#181818;stroke-width:1.0;stroke-dasharray:7.0,7.0;"/><polygon fill="#181818" points="587.19,512.47,581.1518,504.6893,582.7845,510.1054,577.3684,511.7381,587.19,512.47" style="stroke:#181818;stroke-width:1.0;"/></g><!--link API to Routes--><g id="link_API_Routes"><path d="M123.28,213.73 C144.88,213.73 166.47,213.73 188.07,213.73 " fill="none" id="API-Routes" style="stroke:#181818;stroke-width:1.0;"/></g><!--link SPA to API--><g id="link_SPA_API"><path d="M114,77.74 C114,110.59 114,174.38 114,198.41 " fill="none" id="SPA-to-API" style="stroke:#181818;stroke-width:1.0;stroke-dasharray:7.0,7.0;"/><polygon fill="#181818" points="114,204.41,118,195.41,114,199.41,110,195.41,114,204.41" style="stroke:#181818;stroke-width:1.0;"/></g><!--link Query to Database--><g id="link_Query_Database"><path d="M286.41,653.69 C297.98,653.69 309.54,653.69 321.11,653.69 " fill="none" id="Query-Database" style="stroke:#181818;stroke-width:1.0;"/></g><!--link ORM to Query--><g id="link_ORM_Query"><path d="M277,536.92 C277,566 277,616.74 277,638.2 " fill="none" id="ORM-to-Query" style="stroke:#181818;stroke-width:1.0;stroke-dasharray:7.0,7.0;"/><polygon fill="#181818" points="277,644.2,281,635.2,277,639.2,273,635.2,277,644.2" style="stroke:#181818;stroke-width:1.0;"/></g><!--SRC=[TLBDRi8m3BxdAIpkuH6GAcs7IJ2wzeWuc62wZ3I9ai249jvzIGhzqtQhxU_FJlrPQeiEMn2cjKQJ3dMuAG978g1k537VG_md7istr0sSK7bYpA8uOqEmA1tvICKWZGQ5Dt8B-640krec3LucL66jaY9Zze0Uwh9Wzv78sZHI3En8xqSZAgm7-MXGcKiWl- -AcjnLYhwio1elWt6oRxsR84yFfGSwJUuJjnSC28M8GdxcjZrynRlmYbHMG0KRj9PStcTRRPvIprZ0-MeQQoYwsJpZVFvFu2clWqR_VJger87S2KNSv9MtA1LOPwxoI0wAycsHecvYDtwpF-LXkLpr23QzokWSkzGueAUvwVYndeP9QWJvk92xGT_8aDnZB2A13-yQVvAS9sVfQ7nidRVEY8x_2m00]--></g></svg>