<svg xmlns="http://www.w3.org/2000/svg" xmlns:xlink="http://www.w3.org/1999/xlink" version="1.1" data-diagram-type="CLASS" style="width:221px;height:431px;background:#FFFFFF;" width="221px" height="431px" viewBox="0 0 221 431" zoomAndPan="magnify" preserveAspectRatio="none" contentStyleType="text/css"><?plantuml 1.2026.8?><defs/><g font-family="sans-serif" lengthAdjust="spacing"><path d="M28.47,6 L160.33,6 A3.75,3.75 0 0 1 162.83,8.5 L169.83,28.488 L174.33,28.488 A2.5,2.5 0 0 1 176.83,30.988 L176.83,56.477 A2.5,2.5 0 0 1 174.33,58.977 L28.47,58.977 A2.5,2.5 0 0 1 25.97,56.477 L25.97,8.5 A2.5,2.5 0 0 1 28.47,6" style="stroke:#181818;stroke-width:0.5;" fill="#F1F1F1"/><line x1="25.97" y1="28.488" x2="169.83" y2="28.488" style="stroke:#181818;stroke-width:0.5;"/><text x="29.97" y="21.535" fill="#000" font-size="14" textLength="130.86" font-weight="700">Presentation layer</text><path d="M32.83,118.98 L155.968,118.98 A3.75,3.75 0 0 1 158.468,121.48 L165.468,141.468 L169.968,141.468 A2.5,2.5 0 0 1 172.468,143.968 L172.468,169.457 A2.5,2.5 0 0 1 169.968,171.957 L32.83,171.957 A2.5,2.5 0 0 1 30.33,169.457 L30.33,121.48 A2.5,2.5 0 0 1 32.83,118.98" style="stroke:#181818;stroke-width:0.5;" fill="#F1F1F1"/><line x1="30.33" y1="141.468" x2="165.468" y2="141.468" style="stroke:#181818;stroke-width:0.5;"/><text x="34.33" y="134.515" fill="#000" font-size="14" textLength="122.138" font-weight="700">Application layer</text><path d="M31.33,231.96 L157.476,231.96 A3.75,3.75 0 0 1 159.976,234.46 L166.976,254.448 L171.476,254.448 A2.5,2.5 0 0 1 173.976,256.948 L173.976,282.437 A2.5,2.5 0 0 1 171.476,284.937 L31.33,284.937 A2.5,2.5 0 0 1 28.83,282.437 L28.83,234.46 A2.5,2.5 0 0 1 31.33,231.96" style="stroke:#181818;stroke-width:0.5;" fill="#F1F1F1"/><line x1="28.83" y1="254.448" x2="166.976" y2="254.448" style="stroke:#181818;stroke-width:0.5;"/><text x="32.83" y="247.495" fill="#000" font-size="14" textLength="125.146" font-weight="700">Data access layer</text><!--entity persistence--><g class="entity" data-qualified-name="persistence" id="ent0004" data-source-line="8"><path d="M6,354.93 C6,344.93 101.398,344.93 101.398,344.93 C101.398,344.93 196.796,344.93 196.796,354.93 L196.796,396.907 C196.796,406.907 101.398,406.907 101.398,406.907 C101.398,406.907 6,406.907 6,396.907 L6,354.93" style="stroke:#181818;stroke-width:0.5;" fill="#F1F1F1"/><path d="M6,354.93 C6,364.93 101.398,364.93 101.398,364.93 C101.398,364.93 196.796,364.93 196.796,354.93" style="stroke:#181818;stroke-width:0.5;" fill="none"/><text x="16" y="382.465" fill="#000" font-size="14" textLength="113.333">Persistence layer</text><text x="16" y="398.953" fill="#000" font-size="14" textLength="170.796">(database + vector store)</text></g><!--link Presentation layer to Application layer--><g class="link" data-entity-1="ent0001" data-entity-2="ent0002" id="lnk5" data-source-line="11" data-link-type="dependency"><path d="M101.4,59.23 C101.4,77.03 101.4,95.63 101.4,113.48" style="stroke:#181818;stroke-width:1;" fill="none" id="Presentation layer-to-Application layer" codeLine="11"/><polygon points="101.4,118.48,105.4,109.48,101.4,113.48,97.4,109.48,101.4,118.48" fill="#181818" style="stroke:#181818;stroke-width:1;stroke-linejoin:miter;stroke-miterlimit:10;"/></g><!--link Application layer to Data access layer--><g class="link" data-entity-1="ent0002" data-entity-2="ent0003" id="lnk6" data-source-line="12" data-link-type="dependency"><path d="M101.4,172.21 C101.4,190.01 101.4,208.61 101.4,226.46" style="stroke:#181818;stroke-width:1;" fill="none" id="Application layer-to-Data access layer" codeLine="12"/><polygon points="101.4,231.46,105.4,222.46,101.4,226.46,97.4,222.46,101.4,231.46" fill="#181818" style="stroke:#181818;stroke-width:1;stroke-linejoin:miter;stroke-miterlimit:10;"/></g><!--link Data access layer to persistence--><g class="link" data-entity-1="ent0003" data-entity-2="ent0004" id="lnk7" data-source-line="13" data-link-type="dependency"><path d="M101.4,285.36 C101.4,302.92 101.4,321.18 101.4,339.6" style="stroke:#181818;stroke-width:1;" fill="none" id="Data access layer-to-persistence" codeLine="13"/><polygon points="101.4,344.6,105.4,335.6,101.4,339.6,97.4,335.6,101.4,344.6" fill="#181818" style="stroke:#181818;stroke-width:1;stroke-linejoin:miter;stroke-miterlimit:10;"/></g><?plantuml-src TOun2W9134Nxd29CfSXUGH0yW0UmYJ4iWyjic0H1nBkxexXC4PiK_xyaJublD0gcKnMJukHvBZZHGsh29xn0Vy11TShylp-I4nApcFNzTOalPEs3LClcKbY-mBbirdQ7Ts6VAzeoP9kG3BLRQASWb1o6VIW7KVY10rE8mWPt3cy0?></g></svg>