<svg xmlns="http://www.w3.org/2000/svg" xmlns:xlink="http://www.w3.org/1999/xlink" version="1.1" data-diagram-type="SEQUENCE" style="width:1130px;height:1116px;background:#FFFFFF;" width="1130px" height="1116px" viewBox="0 0 1130 1116" zoomAndPan="magnify" preserveAspectRatio="none" contentStyleType="text/css"><?plantuml 1.2026.8?><defs/><g font-family="sans-serif" lengthAdjust="spacing"><rect x="613.007" y="231.041" width="497.354" height="224.795" fill="none" style="stroke:#000;stroke-width:1.5;"/><rect x="262.649" y="473.836" width="721.995" height="298.061" fill="none" style="stroke:#000;stroke-width:1.5;"/><rect x="613.007" y="627.344" width="346.637" height="101.242" fill="none" style="stroke:#000;stroke-width:1.5;"/><rect x="23" y="879.139" width="523.141" height="126.197" fill="none" style="stroke:#000;stroke-width:1.5;"/><g><title>Student</title><rect x="35.5" y="86.488" width="8" height="942.848" fill="#000" fill-opacity="0"/><line x1="39" y1="86.488" x2="39" y2="1029.336" style="stroke:#181818;stroke-width:0.5;stroke-dasharray:5,5;"/></g><g><title>Routes</title><rect x="275.149" y="86.488" width="8" height="942.848" fill="#000" fill-opacity="0"/><line x1="278.649" y1="86.488" x2="278.649" y2="1029.336" style="stroke:#181818;stroke-width:0.5;stroke-dasharray:5,5;"/></g><g><title>FaqMatchingService</title><rect x="625.507" y="86.488" width="8" height="942.848" fill="#000" fill-opacity="0"/><line x1="629.007" y1="86.488" x2="629.007" y2="1029.336" style="stroke:#181818;stroke-width:0.5;stroke-dasharray:5,5;"/></g><g><title>Database</title><rect x="851.502" y="86.488" width="8" height="942.848" fill="#000" fill-opacity="0"/><line x1="855.002" y1="86.488" x2="855.002" y2="1029.336" style="stroke:#181818;stroke-width:0.5;stroke-dasharray:5,5;"/></g><g><title>Vector store</title><rect x="940.145" y="86.488" width="8" height="942.848" fill="#000" fill-opacity="0"/><line x1="943.645" y1="86.488" x2="943.645" y2="1029.336" style="stroke:#181818;stroke-width:0.5;stroke-dasharray:5,5;"/></g><text x="10" y="83.535" fill="#000" font-size="14" textLength="52.001">Student</text><ellipse cx="39" cy="18.5" rx="8" ry="8" fill="#E2E2F0" style="stroke:#181818;stroke-width:0.5;"/><path d="M39,26.5 L39,53.5 M26,34.5 L52,34.5 M39,53.5 L26,68.5 M39,53.5 L52,68.5" style="stroke:#181818;stroke-width:0.5;" fill="none"/><rect x="248.493" y="55" width="60.313" height="30.488" fill="#E2E2F0" style="stroke:#181818;stroke-width:0.5;" rx="2.5" ry="2.5"/><text x="255.493" y="75.535" fill="#000" font-size="14" textLength="46.313">Routes</text><rect x="555.142" y="55" width="147.731" height="30.488" fill="#E2E2F0" style="stroke:#181818;stroke-width:0.5;" rx="2.5" ry="2.5"/><text x="562.142" y="75.535" fill="#000" font-size="14" textLength="133.731">FaqMatchingService</text><text x="820.67" y="83.535" fill="#000" font-size="14" textLength="62.665">Database</text><path d="M837.002,34 C837.002,24 855.002,24 855.002,24 C855.002,24 873.002,24 873.002,34 L873.002,60 C873.002,70 855.002,70 855.002,70 C855.002,70 837.002,70 837.002,60 L837.002,34" style="stroke:#181818;stroke-width:0.5;" fill="#E2E2F0"/><path d="M837.002,34 C837.002,44 855.002,44 855.002,44 C855.002,44 873.002,44 873.002,34" style="stroke:#181818;stroke-width:0.5;" fill="none"/><text x="899.335" y="83.535" fill="#000" font-size="14" textLength="82.619">Vector store</text><path d="M925.645,34 C925.645,24 943.645,24 943.645,24 C943.645,24 961.645,24 961.645,34 L961.645,60 C961.645,70 943.645,70 943.645,70 C943.645,70 925.645,70 925.645,60 L925.645,34" style="stroke:#181818;stroke-width:0.5;" fill="#E2E2F0"/><path d="M925.645,34 C925.645,44 943.645,44 943.645,44 C943.645,44 961.645,44 961.645,34" style="stroke:#181818;stroke-width:0.5;" fill="none"/><text x="10" y="1042.871" fill="#000" font-size="14" textLength="52.001">Student</text><ellipse cx="39" cy="1054.324" rx="8" ry="8" fill="#E2E2F0" style="stroke:#181818;stroke-width:0.5;"/><path d="M39,1062.324 L39,1089.324 M26,1070.324 L52,1070.324 M39,1089.324 L26,1104.324 M39,1089.324 L52,1104.324" style="stroke:#181818;stroke-width:0.5;" fill="none"/><rect x="248.493" y="1029.336" width="60.313" height="30.488" fill="#E2E2F0" style="stroke:#181818;stroke-width:0.5;" rx="2.5" ry="2.5"/><text x="255.493" y="1049.871" fill="#000" font-size="14" textLength="46.313">Routes</text><rect x="555.142" y="1029.336" width="147.731" height="30.488" fill="#E2E2F0" style="stroke:#181818;stroke-width:0.5;" rx="2.5" ry="2.5"/><text x="562.142" y="1049.871" fill="#000" font-size="14" textLength="133.731">FaqMatchingService</text><text x="820.67" y="1042.871" fill="#000" font-size="14" textLength="62.665">Database</text><path d="M837.002,1055.824 C837.002,1045.824 855.002,1045.824 855.002,1045.824 C855.002,1045.824 873.002,1045.824 873.002,1055.824 L873.002,1081.824 C873.002,1091.824 855.002,1091.824 855.002,1091.824 C855.002,1091.824 837.002,1091.824 837.002,1081.824 L837.002,1055.824" style="stroke:#181818;stroke-width:0.5;" fill="#E2E2F0"/><path d="M837.002,1055.824 C837.002,1065.824 855.002,1065.824 855.002,1065.824 C855.002,1065.824 873.002,1065.824 873.002,1055.824" style="stroke:#181818;stroke-width:0.5;" fill="none"/><text x="899.335" y="1042.871" fill="#000" font-size="14" textLength="82.619">Vector store</text><path d="M925.645,1055.824 C925.645,1045.824 943.645,1045.824 943.645,1045.824 C943.645,1045.824 961.645,1045.824 961.645,1055.824 L961.645,1081.824 C961.645,1091.824 943.645,1091.824 943.645,1091.824 C943.645,1091.824 925.645,1091.824 925.645,1081.824 L925.645,1055.824" style="stroke:#181818;stroke-width:0.5;" fill="#E2E2F0"/><path d="M925.645,1055.824 C925.645,1065.824 943.645,1065.824 943.645,1065.824 C943.645,1065.824 961.645,1065.824 961.645,1055.824" style="stroke:#181818;stroke-width:0.5;" fill="none"/><polygon points="266.649,111.799,276.649,115.799,266.649,119.799,270.649,115.799" fill="#181818" style="stroke:#181818;stroke-width:1;stroke-linejoin:miter;stroke-miterlimit:10;"/><line x1="39" y1="115.799" x2="272.649" y2="115.799" style="stroke:#181818;stroke-width:1;"/><text x="46" y="111.057" fill="#000" font-size="13" textLength="215.649">POST /questions (office, question)</text><polygon points="617.007,141.109,627.007,145.109,617.007,149.109,621.007,145.109" fill="#181818" style="stroke:#181818;stroke-width:1;stroke-linejoin:miter;stroke-miterlimit:10;"/><line x1="278.649" y1="145.109" x2="623.007" y2="145.109" style="stroke:#181818;stroke-width:1;"/><text x="285.649" y="140.367" fill="#000" font-size="13" textLength="145.583">match(office, question)</text><polygon points="843.002,185.73,853.002,189.73,843.002,193.73,847.002,189.73" fill="#181818" style="stroke:#181818;stroke-width:1;stroke-linejoin:miter;stroke-miterlimit:10;"/><line x1="629.007" y1="189.73" x2="849.002" y2="189.73" style="stroke:#181818;stroke-width:1;"/><text x="636.007" y="169.678" fill="#000" font-size="13" textLength="98.033">full-text search</text><text x="636.007" y="184.988" fill="#000" font-size="13" textLength="87.921">FAQs in office</text><polygon points="640.007,215.041,630.007,219.041,640.007,223.041,636.007,219.041" fill="#181818" style="stroke:#181818;stroke-width:1;stroke-linejoin:miter;stroke-miterlimit:10;"/><line x1="634.007" y1="219.041" x2="854.002" y2="219.041" style="stroke:#181818;stroke-width:1;stroke-dasharray:2,2;"/><text x="646.007" y="214.299" fill="#000" font-size="13" textLength="201.995">best match (if rank ≥ threshold)</text><path d="M613.007,231.041 L680.192,231.041 L680.192,238.352 L670.192,248.352 L613.007,248.352 L613.007,231.041" style="stroke:#000;stroke-width:1.5;" fill="#EEE"/><rect x="613.007" y="231.041" width="497.354" height="224.795" fill="none" style="stroke:#000;stroke-width:1.5;"/><text x="628.007" y="244.609" fill="#000" font-size="13" textLength="22.185" font-weight="700">opt</text><text x="695.192" y="243.676" fill="#000" font-size="11" textLength="162.223" font-weight="700">[no full-text match in office]</text><line x1="629.007" y1="294.973" x2="671.007" y2="294.973" style="stroke:#181818;stroke-width:1;"/><line x1="671.007" y1="294.973" x2="671.007" y2="307.973" style="stroke:#181818;stroke-width:1;"/><line x1="630.007" y1="307.973" x2="671.007" y2="307.973" style="stroke:#181818;stroke-width:1;"/><polygon points="640.007,303.973,630.007,307.973,640.007,311.973,636.007,307.973" fill="#181818" style="stroke:#181818;stroke-width:1;stroke-linejoin:miter;stroke-miterlimit:10;"/><text x="636.007" y="274.92" fill="#000" font-size="13" textLength="101.893">embed question</text><text x="636.007" y="290.23" fill="#000" font-size="13" textLength="81.212">(local model)</text><polygon points="931.645,348.594,941.645,352.594,931.645,356.594,935.645,352.594" fill="#181818" style="stroke:#181818;stroke-width:1;stroke-linejoin:miter;stroke-miterlimit:10;"/><line x1="629.007" y1="352.594" x2="937.645" y2="352.594" style="stroke:#181818;stroke-width:1;"/><text x="636.007" y="332.541" fill="#000" font-size="13" textLength="103.156">similarity search</text><text x="636.007" y="347.852" fill="#000" font-size="13" textLength="87.921">FAQs in office</text><polygon points="640.007,377.904,630.007,381.904,640.007,385.904,636.007,381.904" fill="#181818" style="stroke:#181818;stroke-width:1;stroke-linejoin:miter;stroke-miterlimit:10;"/><line x1="634.007" y1="381.904" x2="942.645" y2="381.904" style="stroke:#181818;stroke-width:1;stroke-dasharray:2,2;"/><text x="646.007" y="377.162" fill="#000" font-size="13" textLength="238.539">nearest FAQ (if similarity ≥ threshold)</text><path d="M948.645,394.904 L948.645,449.904 L1088.645,449.904 L1088.645,404.904 L1078.645,394.904 L948.645,394.904" style="stroke:#181818;stroke-width:0.5;" fill="#FEFFDD"/><path d="M1078.645,394.904 L1078.645,404.904 L1088.645,404.904 L1078.645,394.904" style="stroke:#181818;stroke-width:0.5;" fill="#FEFFDD"/><text x="954.645" y="412.473" fill="#000" font-size="13" textLength="117.229">store unreachable:</text><text x="954.645" y="427.783" fill="#000" font-size="13" textLength="82.792">error logged,</text><text x="954.645" y="443.094" fill="#000" font-size="13" textLength="119.717">no semantic match</text><path d="M262.649,473.836 L324.788,473.836 L324.788,481.146 L314.788,491.146 L262.649,491.146 L262.649,473.836" style="stroke:#000;stroke-width:1.5;" fill="#EEE"/><rect x="262.649" y="473.836" width="721.995" height="298.061" fill="none" style="stroke:#000;stroke-width:1.5;"/><text x="277.649" y="487.404" fill="#000" font-size="13" textLength="17.139" font-weight="700">alt</text><text x="339.788" y="486.471" fill="#000" font-size="11" textLength="129.846" font-weight="700">[match found in office]</text><polygon points="289.649,518.457,279.649,522.457,289.649,526.457,285.649,522.457" fill="#181818" style="stroke:#181818;stroke-width:1;stroke-linejoin:miter;stroke-miterlimit:10;"/><line x1="283.649" y1="522.457" x2="628.007" y2="522.457" style="stroke:#181818;stroke-width:1;stroke-dasharray:2,2;"/><text x="295.649" y="517.715" fill="#000" font-size="13" textLength="176.363">Match(answer, office, score)</text><line x1="262.649" y1="531.457" x2="984.645" y2="531.457" style="stroke:#000;stroke-width:1;stroke-dasharray:2,2;"/><text x="267.649" y="544.092" fill="#000" font-size="11" textLength="110.773" font-weight="700">[no match in office]</text><polygon points="843.002,582.033,853.002,586.033,843.002,590.033,847.002,586.033" fill="#181818" style="stroke:#181818;stroke-width:1;stroke-linejoin:miter;stroke-miterlimit:10;"/><line x1="629.007" y1="586.033" x2="849.002" y2="586.033" style="stroke:#181818;stroke-width:1;"/><text x="636.007" y="565.98" fill="#000" font-size="13" textLength="98.033">full-text search</text><text x="636.007" y="581.291" fill="#000" font-size="13" textLength="141.927">FAQs across all offices</text><polygon points="640.007,611.344,630.007,615.344,640.007,619.344,636.007,615.344" fill="#181818" style="stroke:#181818;stroke-width:1;stroke-linejoin:miter;stroke-miterlimit:10;"/><line x1="634.007" y1="615.344" x2="854.002" y2="615.344" style="stroke:#181818;stroke-width:1;stroke-dasharray:2,2;"/><text x="646.007" y="610.602" fill="#000" font-size="13" textLength="184.063">best match elsewhere (if any)</text><path d="M613.007,627.344 L680.192,627.344 L680.192,634.654 L670.192,644.654 L613.007,644.654 L613.007,627.344" style="stroke:#000;stroke-width:1.5;" fill="#EEE"/><rect x="613.007" y="627.344" width="346.637" height="101.242" fill="none" style="stroke:#000;stroke-width:1.5;"/><text x="628.007" y="640.912" fill="#000" font-size="13" textLength="22.185" font-weight="700">opt</text><text x="695.192" y="639.979" fill="#000" font-size="11" textLength="173.067" font-weight="700">[no full-text match elsewhere]</text><polygon points="931.645,687.275,941.645,691.275,931.645,695.275,935.645,691.275" fill="#181818" style="stroke:#181818;stroke-width:1;stroke-linejoin:miter;stroke-miterlimit:10;"/><line x1="629.007" y1="691.275" x2="937.645" y2="691.275" style="stroke:#181818;stroke-width:1;"/><text x="636.007" y="671.223" fill="#000" font-size="13" textLength="103.156">similarity search</text><text x="636.007" y="686.533" fill="#000" font-size="13" textLength="141.927">FAQs across all offices</text><polygon points="640.007,716.586,630.007,720.586,640.007,724.586,636.007,720.586" fill="#181818" style="stroke:#181818;stroke-width:1;stroke-linejoin:miter;stroke-miterlimit:10;"/><line x1="634.007" y1="720.586" x2="942.645" y2="720.586" style="stroke:#181818;stroke-width:1;stroke-dasharray:2,2;"/><text x="646.007" y="715.844" fill="#000" font-size="13" textLength="190.823">nearest FAQ elsewhere (if any)</text><polygon points="289.649,759.896,279.649,763.896,289.649,767.896,285.649,763.896" fill="#181818" style="stroke:#181818;stroke-width:1;stroke-linejoin:miter;stroke-miterlimit:10;"/><line x1="283.649" y1="763.896" x2="628.007" y2="763.896" style="stroke:#181818;stroke-width:1;stroke-dasharray:2,2;"/><text x="295.649" y="759.154" fill="#000" font-size="13" textLength="269.077">Match(answer, actualOffice, score) or none</text><polygon points="843.002,818.518,853.002,822.518,843.002,826.518,847.002,822.518" fill="#181818" style="stroke:#181818;stroke-width:1;stroke-linejoin:miter;stroke-miterlimit:10;"/><line x1="278.649" y1="822.518" x2="849.002" y2="822.518" style="stroke:#181818;stroke-width:1;"/><text x="285.649" y="802.465" fill="#000" font-size="13" textLength="99.614">record question</text><text x="285.649" y="817.775" fill="#000" font-size="13" textLength="164.087">(+ matched FAQ, method)</text><polygon points="50,863.139,40,867.139,50,871.139,46,867.139" fill="#181818" style="stroke:#181818;stroke-width:1;stroke-linejoin:miter;stroke-miterlimit:10;"/><line x1="44" y1="867.139" x2="277.649" y2="867.139" style="stroke:#181818;stroke-width:1;stroke-dasharray:2,2;"/><text x="56" y="847.086" fill="#000" font-size="13" textLength="113.629">suggested answer</text><text x="56" y="862.396" fill="#000" font-size="13" textLength="195.495">(+ correct office, if reassigned)</text><path d="M23,879.139 L85.139,879.139 L85.139,886.449 L75.139,896.449 L23,896.449 L23,879.139" style="stroke:#000;stroke-width:1.5;" fill="#EEE"/><rect x="23" y="879.139" width="523.141" height="126.197" fill="none" style="stroke:#000;stroke-width:1.5;"/><text x="38" y="892.707" fill="#000" font-size="13" textLength="17.139" font-weight="700">alt</text><text x="100.139" y="891.773" fill="#000" font-size="11" textLength="168.545" font-weight="700">[answer resolves the request]</text><polygon points="266.649,923.76,276.649,927.76,266.649,931.76,270.649,927.76" fill="#181818" style="stroke:#181818;stroke-width:1;stroke-linejoin:miter;stroke-miterlimit:10;"/><line x1="39" y1="927.76" x2="272.649" y2="927.76" style="stroke:#181818;stroke-width:1;"/><text x="46" y="923.018" fill="#000" font-size="13" textLength="126.896">mark as satisfactory</text><path d="M283.649,911.449 L283.649,936.449 L524.649,936.449 L524.649,921.449 L514.649,911.449 L283.649,911.449" style="stroke:#181818;stroke-width:0.5;" fill="#FEFFDD"/><path d="M514.649,911.449 L514.649,921.449 L524.649,921.449 L514.649,911.449" style="stroke:#181818;stroke-width:0.5;" fill="#FEFFDD"/><text x="289.649" y="929.018" fill="#000" font-size="13" textLength="220.492">flow ends, no appointment created</text><line x1="23" y1="942.76" x2="546.142" y2="942.76" style="stroke:#000;stroke-width:1;stroke-dasharray:2,2;"/><text x="28" y="955.395" fill="#000" font-size="11" textLength="208.979" font-weight="700">[not satisfactory (or no match at all)]</text><polygon points="266.649,993.336,276.649,997.336,266.649,1001.336,270.649,997.336" fill="#181818" style="stroke:#181818;stroke-width:1;stroke-linejoin:miter;stroke-miterlimit:10;"/><line x1="39" y1="997.336" x2="272.649" y2="997.336" style="stroke:#181818;stroke-width:1;"/><text x="46" y="977.283" fill="#000" font-size="13" textLength="116.391">book appointment</text><text x="46" y="992.594" fill="#000" font-size="13" textLength="173.424">(chosen or corrected office)</text><?plantuml-src ZLJ1Zjem4BtxAqPx0XNK-nugLQhsLkssL3rncJWJOk7Ou9b0-OH-I7-iNz9n4Y2f0Eq58llDyvltnaOhCS5AsfA2039m_sbscCHPjqDTVleUMo5-olkf-vnkl-3-AugjNTYiA1sSfGvQuPuFrfGeM20JF7qPlhhTiXZj_AHE1-jFltjWOmOfiFmqd0hFyFQw-W4Vzosnk1WOPh6gzBm5d9VcPi1gLIz0gvgixWRK30Z5beNYgjRxfT0l0IPCjbw7by_V65o0ljOeQZacBfIfPuUPgo1XsCBVttz0waHSHr_EJTm9X3YYxk5NJe2hYWinDGML5wNhCFFHeeScbkJdav93jeLTupmc9wTxoY439zg30hDy1NRYHnp_jG3QW10ajwb5-OOZSrRGXaHeQomyFQy3fQGf-hZPKBbO1ssRgT4HSRRlsb0eZK5_Dg6ARIXlMZ7El9kj6GO-Kbh0EKMsUlxSaDVvqOCUkVeeMxGfilvvFrIobZw8EPzth4bRpvvXE6LxxcHymIhatP7T5FGulPkQijNlyHEjjEXV9ww2fXXYe3wlwuNgZ4oacCbiVkZxrO5LDGjeIEfONY-Y5fwlihRTwd2mABONq9KheRBA9TjybGYPtIQG4dKJqyDrdQC_AAtKEf7KgT0-RxqL3QPjzwIXEAumlp2dwIphLFXup5Rn8WU8krrqGPhCP5M1oZmFc4nezDr9rwb3oN7DxyWeOjoEcRLZMqUca5qUEbSx-jxdsV9_?></g></svg>