<svg xmlns="http://www.w3.org/2000/svg" xmlns:xlink="http://www.w3.org/1999/xlink" version="1.1" data-diagram-type="SEQUENCE" style="width:1121px;height:1055px;background:#FFFFFF;" width="1121px" height="1055px" viewBox="0 0 1121 1055" zoomAndPan="magnify" preserveAspectRatio="none" contentStyleType="text/css"><?plantuml 1.2026.8?><defs/><g font-family="sans-serif" lengthAdjust="spacing"><g><title>Student A</title><rect x="42.545" y="86.488" width="8" height="881.316" fill="#000" fill-opacity="0"/><line x1="46.045" y1="86.488" x2="46.045" y2="967.805" style="stroke:#181818;stroke-width:0.5;stroke-dasharray:5,5;"/></g><g><title>Student B</title><rect x="123.832" y="86.488" width="8" height="881.316" fill="#000" fill-opacity="0"/><line x1="127.332" y1="86.488" x2="127.332" y2="967.805" style="stroke:#181818;stroke-width:0.5;stroke-dasharray:5,5;"/></g><g><title>Routes</title><rect x="368.768" y="86.488" width="8" height="881.316" fill="#000" fill-opacity="0"/><line x1="372.268" y1="86.488" x2="372.268" y2="967.805" style="stroke:#181818;stroke-width:0.5;stroke-dasharray:5,5;"/></g><g><title>BookingService</title><rect x="500.602" y="86.488" width="8" height="881.316" fill="#000" fill-opacity="0"/><line x1="504.102" y1="86.488" x2="504.102" y2="967.805" style="stroke:#181818;stroke-width:0.5;stroke-dasharray:5,5;"/></g><g><title>AppointmentRepository</title><rect x="773.76" y="86.488" width="8" height="881.316" fill="#000" fill-opacity="0"/><line x1="777.26" y1="86.488" x2="777.26" y2="967.805" style="stroke:#181818;stroke-width:0.5;stroke-dasharray:5,5;"/></g><g><title>Database</title><rect x="1072.417" y="86.488" width="8" height="881.316" fill="#000" fill-opacity="0"/><line x1="1075.917" y1="86.488" x2="1075.917" y2="967.805" style="stroke:#181818;stroke-width:0.5;stroke-dasharray:5,5;"/></g><text x="10" y="83.535" fill="#000" font-size="14" textLength="66.09">Student A</text><ellipse cx="46.045" cy="18.5" rx="8" ry="8" fill="#E2E2F0" style="stroke:#181818;stroke-width:0.5;"/><path d="M46.045,26.5 L46.045,53.5 M33.045,34.5 L59.045,34.5 M46.045,53.5 L33.045,68.5 M46.045,53.5 L59.045,68.5" style="stroke:#181818;stroke-width:0.5;" fill="none"/><text x="92.09" y="83.535" fill="#000" font-size="14" textLength="64.483">Student B</text><ellipse cx="127.332" cy="18.5" rx="8" ry="8" fill="#E2E2F0" style="stroke:#181818;stroke-width:0.5;"/><path d="M127.332,26.5 L127.332,53.5 M114.332,34.5 L140.332,34.5 M127.332,53.5 L114.332,68.5 M127.332,53.5 L140.332,68.5" style="stroke:#181818;stroke-width:0.5;" fill="none"/><rect x="342.111" y="55" width="60.313" height="30.488" fill="#E2E2F0" style="stroke:#181818;stroke-width:0.5;" rx="2.5" ry="2.5"/><text x="349.111" y="75.535" fill="#000" font-size="14" textLength="46.313">Routes</text><rect x="445.986" y="55" width="116.231" height="30.488" fill="#E2E2F0" style="stroke:#181818;stroke-width:0.5;" rx="2.5" ry="2.5"/><text x="452.986" y="75.535" fill="#000" font-size="14" textLength="102.231">BookingService</text><rect x="689.873" y="55" width="174.774" height="30.488" fill="#E2E2F0" style="stroke:#181818;stroke-width:0.5;" rx="2.5" ry="2.5"/><text x="696.873" y="75.535" fill="#000" font-size="14" textLength="160.774">AppointmentRepository</text><text x="1041.584" y="83.535" fill="#000" font-size="14" textLength="62.665">Database</text><path d="M1057.917,34 C1057.917,24 1075.917,24 1075.917,24 C1075.917,24 1093.917,24 1093.917,34 L1093.917,60 C1093.917,70 1075.917,70 1075.917,70 C1075.917,70 1057.917,70 1057.917,60 L1057.917,34" style="stroke:#181818;stroke-width:0.5;" fill="#E2E2F0"/><path d="M1057.917,34 C1057.917,44 1075.917,44 1075.917,44 C1075.917,44 1093.917,44 1093.917,34" style="stroke:#181818;stroke-width:0.5;" fill="none"/><text x="10" y="981.34" fill="#000" font-size="14" textLength="66.09">Student A</text><ellipse cx="46.045" cy="992.793" rx="8" ry="8" fill="#E2E2F0" style="stroke:#181818;stroke-width:0.5;"/><path d="M46.045,1000.793 L46.045,1027.793 M33.045,1008.793 L59.045,1008.793 M46.045,1027.793 L33.045,1042.793 M46.045,1027.793 L59.045,1042.793" style="stroke:#181818;stroke-width:0.5;" fill="none"/><text x="92.09" y="981.34" fill="#000" font-size="14" textLength="64.483">Student B</text><ellipse cx="127.332" cy="992.793" rx="8" ry="8" fill="#E2E2F0" style="stroke:#181818;stroke-width:0.5;"/><path d="M127.332,1000.793 L127.332,1027.793 M114.332,1008.793 L140.332,1008.793 M127.332,1027.793 L114.332,1042.793 M127.332,1027.793 L140.332,1042.793" style="stroke:#181818;stroke-width:0.5;" fill="none"/><rect x="342.111" y="967.805" width="60.313" height="30.488" fill="#E2E2F0" style="stroke:#181818;stroke-width:0.5;" rx="2.5" ry="2.5"/><text x="349.111" y="988.34" fill="#000" font-size="14" textLength="46.313">Routes</text><rect x="445.986" y="967.805" width="116.231" height="30.488" fill="#E2E2F0" style="stroke:#181818;stroke-width:0.5;" rx="2.5" ry="2.5"/><text x="452.986" y="988.34" fill="#000" font-size="14" textLength="102.231">BookingService</text><rect x="689.873" y="967.805" width="174.774" height="30.488" fill="#E2E2F0" style="stroke:#181818;stroke-width:0.5;" rx="2.5" ry="2.5"/><text x="696.873" y="988.34" fill="#000" font-size="14" textLength="160.774">AppointmentRepository</text><text x="1041.584" y="981.34" fill="#000" font-size="14" textLength="62.665">Database</text><path d="M1057.917,994.293 C1057.917,984.293 1075.917,984.293 1075.917,984.293 C1075.917,984.293 1093.917,984.293 1093.917,994.293 L1093.917,1020.293 C1093.917,1030.293 1075.917,1030.293 1075.917,1030.293 C1075.917,1030.293 1057.917,1030.293 1057.917,1020.293 L1057.917,994.293" style="stroke:#181818;stroke-width:0.5;" fill="#E2E2F0"/><path d="M1057.917,994.293 C1057.917,1004.293 1075.917,1004.293 1075.917,1004.293 C1075.917,1004.293 1093.917,1004.293 1093.917,994.293" style="stroke:#181818;stroke-width:0.5;" fill="none"/><polygon points="360.268,111.799,370.268,115.799,360.268,119.799,364.268,115.799" fill="#181818" style="stroke:#181818;stroke-width:1;stroke-linejoin:miter;stroke-miterlimit:10;"/><line x1="46.045" y1="115.799" x2="366.268" y2="115.799" style="stroke:#181818;stroke-width:1;"/><text x="53.045" y="111.057" fill="#000" font-size="13" textLength="220.937">POST /appointments (office, slot S)</text><polygon points="360.268,141.109,370.268,145.109,360.268,149.109,364.268,145.109" fill="#181818" style="stroke:#181818;stroke-width:1;stroke-linejoin:miter;stroke-miterlimit:10;"/><line x1="127.332" y1="145.109" x2="366.268" y2="145.109" style="stroke:#181818;stroke-width:1;"/><text x="134.332" y="140.367" fill="#000" font-size="13" textLength="220.937">POST /appointments (office, slot S)</text><polygon points="492.102,170.42,502.102,174.42,492.102,178.42,496.102,174.42" fill="#181818" style="stroke:#181818;stroke-width:1;stroke-linejoin:miter;stroke-miterlimit:10;"/><line x1="372.268" y1="174.42" x2="498.102" y2="174.42" style="stroke:#181818;stroke-width:1;"/><text x="379.268" y="169.678" fill="#000" font-size="13" textLength="107.834">book(A, office, S)</text><polygon points="492.102,199.73,502.102,203.73,492.102,207.73,496.102,203.73" fill="#181818" style="stroke:#181818;stroke-width:1;stroke-linejoin:miter;stroke-miterlimit:10;"/><line x1="372.268" y1="203.73" x2="498.102" y2="203.73" style="stroke:#181818;stroke-width:1;"/><text x="379.268" y="198.988" fill="#000" font-size="13" textLength="106.342">book(B, office, S)</text><polygon points="765.26,229.041,775.26,233.041,765.26,237.041,769.26,233.041" fill="#181818" style="stroke:#181818;stroke-width:1;stroke-linejoin:miter;stroke-miterlimit:10;"/><line x1="504.102" y1="233.041" x2="771.26" y2="233.041" style="stroke:#181818;stroke-width:1;"/><text x="511.102" y="228.299" fill="#000" font-size="13" textLength="249.158">least loaded free employee on duty at S</text><polygon points="515.102,258.352,505.102,262.352,515.102,266.352,511.102,262.352" fill="#181818" style="stroke:#181818;stroke-width:1;stroke-linejoin:miter;stroke-miterlimit:10;"/><line x1="509.102" y1="262.352" x2="776.26" y2="262.352" style="stroke:#181818;stroke-width:1;stroke-dasharray:2,2;"/><text x="521.102" y="257.609" fill="#000" font-size="13" textLength="59.001">E1 (for A)</text><polygon points="765.26,287.662,775.26,291.662,765.26,295.662,769.26,291.662" fill="#181818" style="stroke:#181818;stroke-width:1;stroke-linejoin:miter;stroke-miterlimit:10;"/><line x1="504.102" y1="291.662" x2="771.26" y2="291.662" style="stroke:#181818;stroke-width:1;"/><text x="511.102" y="286.92" fill="#000" font-size="13" textLength="249.158">least loaded free employee on duty at S</text><polygon points="515.102,316.973,505.102,320.973,515.102,324.973,511.102,320.973" fill="#181818" style="stroke:#181818;stroke-width:1;stroke-linejoin:miter;stroke-miterlimit:10;"/><line x1="509.102" y1="320.973" x2="776.26" y2="320.973" style="stroke:#181818;stroke-width:1;stroke-dasharray:2,2;"/><text x="521.102" y="316.23" fill="#000" font-size="13" textLength="57.51">E1 (for B)</text><path d="M365.792,333.973 L365.792,373.973 L641.792,373.973 L641.792,343.973 L631.792,333.973 L365.792,333.973" style="stroke:#181818;stroke-width:0.5;" fill="#FEFFDD"/><path d="M631.792,333.973 L631.792,343.973 L641.792,343.973 L631.792,333.973" style="stroke:#181818;stroke-width:0.5;" fill="#FEFFDD"/><text x="371.792" y="351.541" fill="#000" font-size="13" textLength="255.62">both requests read before either inserts:</text><text x="371.792" y="366.852" fill="#000" font-size="13" textLength="78.787">both pick E1</text><polygon points="765.26,396.904,775.26,400.904,765.26,404.904,769.26,400.904" fill="#181818" style="stroke:#181818;stroke-width:1;stroke-linejoin:miter;stroke-miterlimit:10;"/><line x1="504.102" y1="400.904" x2="771.26" y2="400.904" style="stroke:#181818;stroke-width:1;"/><text x="511.102" y="396.162" fill="#000" font-size="13" textLength="199.132">create(A, employee=E1, slot=S)</text><polygon points="1063.917,426.215,1073.917,430.215,1063.917,434.215,1067.917,430.215" fill="#181818" style="stroke:#181818;stroke-width:1;stroke-linejoin:miter;stroke-miterlimit:10;"/><line x1="777.26" y1="430.215" x2="1069.917" y2="430.215" style="stroke:#181818;stroke-width:1;"/><text x="784.26" y="425.473" fill="#000" font-size="13" textLength="274.657">BEGIN; lock E1, still on duty?; INSERT (E1, S)</text><polygon points="788.26,455.525,778.26,459.525,788.26,463.525,784.26,459.525" fill="#181818" style="stroke:#181818;stroke-width:1;stroke-linejoin:miter;stroke-miterlimit:10;"/><line x1="782.26" y1="459.525" x2="1074.917" y2="459.525" style="stroke:#181818;stroke-width:1;stroke-dasharray:2,2;"/><text x="794.26" y="454.783" fill="#000" font-size="13" textLength="196.168">ok (unique constraint satisfied)</text><polygon points="515.102,484.836,505.102,488.836,515.102,492.836,511.102,488.836" fill="#181818" style="stroke:#181818;stroke-width:1;stroke-linejoin:miter;stroke-miterlimit:10;"/><line x1="509.102" y1="488.836" x2="776.26" y2="488.836" style="stroke:#181818;stroke-width:1;stroke-dasharray:2,2;"/><text x="521.102" y="484.094" fill="#000" font-size="13" textLength="80.526">appointment</text><polygon points="383.268,514.146,373.268,518.146,383.268,522.146,379.268,518.146" fill="#181818" style="stroke:#181818;stroke-width:1;stroke-linejoin:miter;stroke-miterlimit:10;"/><line x1="377.268" y1="518.146" x2="503.102" y2="518.146" style="stroke:#181818;stroke-width:1;stroke-dasharray:2,2;"/><text x="389.268" y="513.404" fill="#000" font-size="13" textLength="80.526">appointment</text><polygon points="57.045,543.457,47.045,547.457,57.045,551.457,53.045,547.457" fill="#181818" style="stroke:#181818;stroke-width:1;stroke-linejoin:miter;stroke-miterlimit:10;"/><line x1="51.045" y1="547.457" x2="371.268" y2="547.457" style="stroke:#181818;stroke-width:1;stroke-dasharray:2,2;"/><text x="63.045" y="542.715" fill="#000" font-size="13" textLength="182.495">201 Created (assigned to E1)</text><polygon points="765.26,572.768,775.26,576.768,765.26,580.768,769.26,576.768" fill="#181818" style="stroke:#181818;stroke-width:1;stroke-linejoin:miter;stroke-miterlimit:10;"/><line x1="504.102" y1="576.768" x2="771.26" y2="576.768" style="stroke:#181818;stroke-width:1;"/><text x="511.102" y="572.025" fill="#000" font-size="13" textLength="197.641">create(B, employee=E1, slot=S)</text><polygon points="1063.917,602.078,1073.917,606.078,1063.917,610.078,1067.917,606.078" fill="#181818" style="stroke:#181818;stroke-width:1;stroke-linejoin:miter;stroke-miterlimit:10;"/><line x1="777.26" y1="606.078" x2="1069.917" y2="606.078" style="stroke:#181818;stroke-width:1;"/><text x="784.26" y="601.336" fill="#000" font-size="13" textLength="274.657">BEGIN; lock E1, still on duty?; INSERT (E1, S)</text><polygon points="788.26,631.389,778.26,635.389,788.26,639.389,784.26,635.389" fill="#181818" style="stroke:#181818;stroke-width:1;stroke-linejoin:miter;stroke-miterlimit:10;"/><line x1="782.26" y1="635.389" x2="1074.917" y2="635.389" style="stroke:#181818;stroke-width:1;stroke-dasharray:2,2;"/><text x="794.26" y="630.646" fill="#000" font-size="13" textLength="169.083">unique constraint violation</text><polygon points="515.102,660.699,505.102,664.699,515.102,668.699,511.102,664.699" fill="#181818" style="stroke:#181818;stroke-width:1;stroke-linejoin:miter;stroke-miterlimit:10;"/><line x1="509.102" y1="664.699" x2="776.26" y2="664.699" style="stroke:#181818;stroke-width:1;stroke-dasharray:2,2;"/><text x="521.102" y="659.957" fill="#000" font-size="13" textLength="129.073">conflict (rolled back)</text><polygon points="765.26,690.01,775.26,694.01,765.26,698.01,769.26,694.01" fill="#181818" style="stroke:#181818;stroke-width:1;stroke-linejoin:miter;stroke-miterlimit:10;"/><line x1="504.102" y1="694.01" x2="771.26" y2="694.01" style="stroke:#181818;stroke-width:1;"/><text x="511.102" y="689.268" fill="#000" font-size="13" textLength="249.158">least loaded free employee on duty at S</text><polygon points="515.102,719.32,505.102,723.32,515.102,727.32,511.102,723.32" fill="#181818" style="stroke:#181818;stroke-width:1;stroke-linejoin:miter;stroke-miterlimit:10;"/><line x1="509.102" y1="723.32" x2="776.26" y2="723.32" style="stroke:#181818;stroke-width:1;stroke-dasharray:2,2;"/><text x="521.102" y="718.578" fill="#000" font-size="13" textLength="15.266">E2</text><polygon points="765.26,748.631,775.26,752.631,765.26,756.631,769.26,752.631" fill="#181818" style="stroke:#181818;stroke-width:1;stroke-linejoin:miter;stroke-miterlimit:10;"/><line x1="504.102" y1="752.631" x2="771.26" y2="752.631" style="stroke:#181818;stroke-width:1;"/><text x="511.102" y="747.889" fill="#000" font-size="13" textLength="197.641">create(B, employee=E2, slot=S)</text><polygon points="1063.917,777.941,1073.917,781.941,1063.917,785.941,1067.917,781.941" fill="#181818" style="stroke:#181818;stroke-width:1;stroke-linejoin:miter;stroke-miterlimit:10;"/><line x1="777.26" y1="781.941" x2="1069.917" y2="781.941" style="stroke:#181818;stroke-width:1;"/><text x="784.26" y="777.199" fill="#000" font-size="13" textLength="274.657">BEGIN; lock E2, still on duty?; INSERT (E2, S)</text><polygon points="788.26,807.252,778.26,811.252,788.26,815.252,784.26,811.252" fill="#181818" style="stroke:#181818;stroke-width:1;stroke-linejoin:miter;stroke-miterlimit:10;"/><line x1="782.26" y1="811.252" x2="1074.917" y2="811.252" style="stroke:#181818;stroke-width:1;stroke-dasharray:2,2;"/><text x="794.26" y="806.51" fill="#000" font-size="13" textLength="196.168">ok (unique constraint satisfied)</text><polygon points="515.102,836.563,505.102,840.563,515.102,844.563,511.102,840.563" fill="#181818" style="stroke:#181818;stroke-width:1;stroke-linejoin:miter;stroke-miterlimit:10;"/><line x1="509.102" y1="840.563" x2="776.26" y2="840.563" style="stroke:#181818;stroke-width:1;stroke-dasharray:2,2;"/><text x="521.102" y="835.82" fill="#000" font-size="13" textLength="80.526">appointment</text><polygon points="383.268,865.873,373.268,869.873,383.268,873.873,379.268,869.873" fill="#181818" style="stroke:#181818;stroke-width:1;stroke-linejoin:miter;stroke-miterlimit:10;"/><line x1="377.268" y1="869.873" x2="503.102" y2="869.873" style="stroke:#181818;stroke-width:1;stroke-dasharray:2,2;"/><text x="389.268" y="865.131" fill="#000" font-size="13" textLength="80.526">appointment</text><polygon points="138.332,895.184,128.332,899.184,138.332,903.184,134.332,899.184" fill="#181818" style="stroke:#181818;stroke-width:1;stroke-linejoin:miter;stroke-miterlimit:10;"/><line x1="132.332" y1="899.184" x2="371.268" y2="899.184" style="stroke:#181818;stroke-width:1;stroke-dasharray:2,2;"/><text x="144.332" y="894.441" fill="#000" font-size="13" textLength="182.495">201 Created (assigned to E2)</text><path d="M462.878,912.184 L462.878,952.184 L1116.878,952.184 L1116.878,922.184 L1106.878,912.184 L462.878,912.184" style="stroke:#181818;stroke-width:0.5;" fill="#FEFFDD"/><path d="M1106.878,912.184 L1106.878,922.184 L1116.878,922.184 L1106.878,912.184" style="stroke:#181818;stroke-width:0.5;" fill="#FEFFDD"/><text x="579.668" y="929.752" fill="#000" font-size="13" textLength="301.736">at most one attempt per employee on duty at S;</text><text x="579.668" y="945.063" fill="#000" font-size="13" textLength="411.684">once nobody is left free, the booking is refused ("slot just taken")</text><?plantuml-src pLHDRzim3BtxLn0-sK22BJusQ0Tx2uPUkY7fiHVPfbijZkH9T83y-xseyHAZJROUEkn6a8yVxv6IgiGwYbVIrso4yfYKfpnIOtSHt4NKAIUwqfs2BrxQNjY7Y0lcE5nOkzRcSSLkgoiEi18klwt6kBphh3QoGPybTzPhTDu5kEewSN15jH9LAiyKVpbO8LwNKPJJzERGdgxe-xVLFNrGnugU4jiqw3yXtrgXLHeLRyuuW95s882ylPNa4ngmbs3521ODKG07Xa2shBnGQrNDDJMEcNZJjNO7mnggUzcHmZJHxvJfgD5YHac3bUNf-zOlqiXOGSwMtOYdF97ZdprxAEXOrLGoyEYYvGbGRJmxyLSF9a0xNQrHyvmO5Ie8x_KTXhnUp9uNSWq9ZpFUu0Y0BnPVR-_cO1Ug0YYwRGTUd-PqUxTQBEyfsSUGZvpfkA5TKz8RZVcfiiQBKpW7yagqRpJNwJbPJWxdIENqlau1mu4WdYEKVPpHvq2qfaHvhnyDBB5WaFv1cEAV2VDIbAssBNInvfmcm3QjheGIPziMb4fLhT_jxhCtA9NzhLBP1QMo_-I4Yeidb47m5mzryamLUcuiHBU6OGlq4Ug0UbNu-OEnfc8ojhJrZhJ7nXe9cveGddQeZNz-7t7Sz7u_IXo-pXyzceXQiudJNm00?></g></svg>